<svg width="600" height="400" viewBox="0 0 600 400" fill="none" xmlns="http://www.w3.org/2000/svg">
  <!-- Background -->
  <rect width="600" height="400" fill="#1a1a1a"/>
  
  <!-- Document Analysis Interface -->
  <rect x="50" y="50" width="500" height="300" rx="12" fill="#2a2a2a" stroke="#404040" stroke-width="2"/>
  
  <!-- Header -->
  <rect x="50" y="50" width="500" height="60" rx="12" fill="#333333"/>
  <circle cx="80" cy="80" r="8" fill="#4f46e5"/>
  <text x="100" y="85" fill="white" font-family="Arial, sans-serif" font-size="16" font-weight="600">Análisis Legal IA</text>
  
  <!-- Document Upload Area -->
  <rect x="80" y="130" width="200" height="120" rx="8" fill="#1e1e1e" stroke="#4f46e5" stroke-width="2" stroke-dasharray="5,5"/>
  <path d="M150 160 L170 180 L190 160" stroke="#4f46e5" stroke-width="2" fill="none"/>
  <text x="150" y="200" fill="#9ca3af" font-family="Arial, sans-serif" font-size="12" text-anchor="middle">Documento Legal</text>
  <text x="150" y="220" fill="#9ca3af" font-family="Arial, sans-serif" font-size="10" text-anchor="middle">PDF, DOCX</text>
  
  <!-- Analysis Results -->
  <rect x="320" y="130" width="200" height="120" rx="8" fill="#1e1e1e" stroke="#10b981" stroke-width="2"/>
  
  <!-- Analysis Items -->
  <rect x="340" y="150" width="160" height="20" rx="4" fill="#10b981" opacity="0.2"/>
  <text x="350" y="163" fill="#10b981" font-family="Arial, sans-serif" font-size="11">✓ Cláusulas Identificadas</text>
  
  <rect x="340" y="180" width="160" height="20" rx="4" fill="#f59e0b" opacity="0.2"/>
  <text x="350" y="193" fill="#f59e0b" font-family="Arial, sans-serif" font-size="11">⚠ Riesgos Detectados</text>
  
  <rect x="340" y="210" width="160" height="20" rx="4" fill="#3b82f6" opacity="0.2"/>
  <text x="350" y="223" fill="#3b82f6" font-family="Arial, sans-serif" font-size="11">💡 Sugerencias</text>
  
  <!-- AI Processing Animation -->
  <circle cx="300" cy="200" r="15" fill="#4f46e5" opacity="0.8">
    <animate attributeName="opacity" values="0.8;0.3;0.8" dur="2s" repeatCount="indefinite"/>
  </circle>
  <text x="300" y="205" fill="white" font-family="Arial, sans-serif" font-size="12" text-anchor="middle">IA</text>
  
  <!-- Connection Lines -->
  <path d="M280 190 Q290 200 300 200" stroke="#4f46e5" stroke-width="2" fill="none" opacity="0.6">
    <animate attributeName="opacity" values="0.6;1;0.6" dur="2s" repeatCount="indefinite"/>
  </path>
  <path d="M320 200 Q340 200 360 200" stroke="#4f46e5" stroke-width="2" fill="none" opacity="0.6">
    <animate attributeName="opacity" values="0.6;1;0.6" dur="2s" repeatCount="indefinite"/>
  </path>
  
  <!-- Bottom Stats -->
  <rect x="80" y="280" width="440" height="50" rx="8" fill="#1e1e1e"/>
  <text x="100" y="300" fill="white" font-family="Arial, sans-serif" font-size="14" font-weight="600">Análisis Completado</text>
  <text x="100" y="320" fill="#9ca3af" font-family="Arial, sans-serif" font-size="12">Tiempo: 2.3 segundos | Precisión: 98.5%</text>
  
  <!-- Progress Bar -->
  <rect x="400" y="290" width="100" height="8" rx="4" fill="#333333"/>
  <rect x="400" y="290" width="95" height="8" rx="4" fill="#10b981">
    <animate attributeName="width" values="0;95" dur="2s" repeatCount="indefinite"/>
  </rect>
</svg>