<svg width="32" height="32" viewBox="0 0 32 32" xmlns="http://www.w3.org/2000/svg">
  <!-- Cabeza del robot -->
  <circle cx="16" cy="12" r="8" fill="#E5E7EB" stroke="#000000" stroke-width="1"/>
  
  <!-- Antena -->
  <line x1="16" y1="4" x2="16" y2="8" stroke="#000000" stroke-width="1"/>
  <circle cx="16" cy="3" r="1" fill="#9CA3AF"/>
  
  <!-- Ojos -->
  <circle cx="13" cy="11" r="2" fill="#FFFFFF" stroke="#000000" stroke-width="1"/>
  <circle cx="13" cy="11" r="1" fill="#000000"/>
  <circle cx="14" cy="10" r="0.5" fill="#FFFFFF"/>
  
  <!-- Ojo cerrado (guiño) -->
  <path d="M 19 10 Q 20 11 19 12" stroke="#000000" stroke-width="1" fill="none"/>
  
  <!-- Sonrisa -->
  <path d="M 11 14 Q 16 16 21 14" stroke="#000000" stroke-width="1" fill="none"/>
  
  <!-- Auriculares -->
  <ellipse cx="10" cy="12" rx="2" ry="1.5" fill="#4B5563" stroke="#000000" stroke-width="0.5"/>
  <ellipse cx="22" cy="12" rx="2" ry="1.5" fill="#4B5563" stroke="#000000" stroke-width="0.5"/>
  <line x1="8" y1="12" x2="24" y2="12" stroke="#000000" stroke-width="1"/>
  
  <!-- Cuerpo (traje) -->
  <rect x="10" y="20" width="12" height="8" fill="#374151" stroke="#000000" stroke-width="1" rx="1"/>
  
  <!-- Camisa -->
  <rect x="12" y="22" width="8" height="5" fill="#FFFFFF" stroke="#000000" stroke-width="0.5" rx="0.5"/>
  
  <!-- Corbata -->
  <polygon points="16,22 14,26 18,26" fill="#F97316" stroke="#000000" stroke-width="0.5"/>
  <rect x="15.5" y="26" width="1" height="2" fill="#F97316" stroke="#000000" stroke-width="0.5"/>
  
  <!-- Cuello -->
  <rect x="14" y="20" width="4" height="2" fill="#FFFFFF" stroke="#000000" stroke-width="0.5"/>
  
  <!-- Brazos -->
  <rect x="8" y="22" width="2" height="5" fill="#374151" stroke="#000000" stroke-width="1" rx="1"/>
  <rect x="22" y="22" width="2" height="5" fill="#374151" stroke="#000000" stroke-width="1" rx="1"/>
  
  <!-- Manos -->
  <circle cx="9" cy="28" r="1" fill="#E5E7EB" stroke="#000000" stroke-width="0.5"/>
  <circle cx="23" cy="28" r="1" fill="#E5E7EB" stroke="#000000" stroke-width="0.5"/>
  
  <!-- Piernas -->
  <rect x="12" y="28" width="2" height="4" fill="#374151" stroke="#000000" stroke-width="1" rx="1"/>
  <rect x="18" y="28" width="2" height="4" fill="#374151" stroke="#000000" stroke-width="1" rx="1"/>
  
  <!-- Pies -->
  <ellipse cx="13" cy="32" rx="1.5" ry="0.5" fill="#1F2937" stroke="#000000" stroke-width="0.5"/>
  <ellipse cx="19" cy="32" rx="1.5" ry="0.5" fill="#1F2937" stroke="#000000" stroke-width="0.5"/>
</svg>















